<mxfile host="app.diagrams.net" modified="2020-10-23T05:04:25.537Z" agent="5.0 (Windows)" etag="JBLfJJGUeeVJZOEtJvpo" version="13.8.1" type="github">
  <diagram id="C5RBs43oDa-KdzZeNtuy" name="Page-1">
    <mxGraphModel dx="1216" dy="791" grid="1" gridSize="10" guides="1" tooltips="1" connect="1" arrows="1" fold="1" page="1" pageScale="1" pageWidth="827" pageHeight="1169" math="0" shadow="0">
      <root>
        <mxCell id="WIyWlLk6GJQsqaUBKTNV-0" />
        <mxCell id="WIyWlLk6GJQsqaUBKTNV-1" parent="WIyWlLk6GJQsqaUBKTNV-0" />
        <mxCell id="ulcF0Oi9tIBlTC5bzUrJ-4" value="Nouns (名詞)" style="rounded=0;whiteSpace=wrap;html=1;" parent="WIyWlLk6GJQsqaUBKTNV-1" vertex="1">
          <mxGeometry x="341" y="40" width="120" height="40" as="geometry" />
        </mxCell>
        <mxCell id="ulcF0Oi9tIBlTC5bzUrJ-5" value="" style="endArrow=none;html=1;" parent="WIyWlLk6GJQsqaUBKTNV-1" edge="1">
          <mxGeometry width="50" height="50" relative="1" as="geometry">
            <mxPoint x="401" y="100" as="sourcePoint" />
            <mxPoint x="401" y="80" as="targetPoint" />
          </mxGeometry>
        </mxCell>
        <mxCell id="ulcF0Oi9tIBlTC5bzUrJ-6" value="" style="endArrow=none;html=1;" parent="WIyWlLk6GJQsqaUBKTNV-1" edge="1">
          <mxGeometry width="50" height="50" relative="1" as="geometry">
            <mxPoint x="200" y="100" as="sourcePoint" />
            <mxPoint x="640" y="100" as="targetPoint" />
            <Array as="points" />
          </mxGeometry>
        </mxCell>
        <mxCell id="ulcF0Oi9tIBlTC5bzUrJ-8" value="" style="endArrow=classic;html=1;" parent="WIyWlLk6GJQsqaUBKTNV-1" edge="1">
          <mxGeometry width="50" height="50" relative="1" as="geometry">
            <mxPoint x="200" y="100" as="sourcePoint" />
            <mxPoint x="200" y="120" as="targetPoint" />
          </mxGeometry>
        </mxCell>
        <mxCell id="ulcF0Oi9tIBlTC5bzUrJ-9" value="" style="endArrow=classic;html=1;" parent="WIyWlLk6GJQsqaUBKTNV-1" edge="1">
          <mxGeometry width="50" height="50" relative="1" as="geometry">
            <mxPoint x="640" y="101" as="sourcePoint" />
            <mxPoint x="640" y="120" as="targetPoint" />
          </mxGeometry>
        </mxCell>
        <mxCell id="ulcF0Oi9tIBlTC5bzUrJ-11" value="&lt;div&gt;Countable&lt;/div&gt;&lt;div&gt;(數得到)&lt;/div&gt;" style="rounded=0;whiteSpace=wrap;html=1;" parent="WIyWlLk6GJQsqaUBKTNV-1" vertex="1">
          <mxGeometry x="120" y="121" width="160" height="40" as="geometry" />
        </mxCell>
        <mxCell id="ulcF0Oi9tIBlTC5bzUrJ-12" value="Uncountable&lt;br&gt;(不能數得到)" style="rounded=0;whiteSpace=wrap;html=1;" parent="WIyWlLk6GJQsqaUBKTNV-1" vertex="1">
          <mxGeometry x="561" y="121" width="160" height="40" as="geometry" />
        </mxCell>
        <mxCell id="ulcF0Oi9tIBlTC5bzUrJ-16" value="" style="endArrow=none;html=1;" parent="WIyWlLk6GJQsqaUBKTNV-1" edge="1">
          <mxGeometry width="50" height="50" relative="1" as="geometry">
            <mxPoint x="200" y="181" as="sourcePoint" />
            <mxPoint x="200" y="161" as="targetPoint" />
          </mxGeometry>
        </mxCell>
        <mxCell id="ulcF0Oi9tIBlTC5bzUrJ-17" value="" style="endArrow=none;html=1;" parent="WIyWlLk6GJQsqaUBKTNV-1" edge="1">
          <mxGeometry width="50" height="50" relative="1" as="geometry">
            <mxPoint x="639" y="181" as="sourcePoint" />
            <mxPoint x="639" y="161" as="targetPoint" />
          </mxGeometry>
        </mxCell>
        <mxCell id="ulcF0Oi9tIBlTC5bzUrJ-19" value="" style="endArrow=none;html=1;" parent="WIyWlLk6GJQsqaUBKTNV-1" edge="1">
          <mxGeometry width="50" height="50" relative="1" as="geometry">
            <mxPoint x="99" y="303" as="sourcePoint" />
            <mxPoint x="298" y="303" as="targetPoint" />
            <Array as="points" />
          </mxGeometry>
        </mxCell>
        <mxCell id="ulcF0Oi9tIBlTC5bzUrJ-20" value="" style="endArrow=classic;html=1;" parent="WIyWlLk6GJQsqaUBKTNV-1" edge="1">
          <mxGeometry width="50" height="50" relative="1" as="geometry">
            <mxPoint x="321.5" y="210" as="sourcePoint" />
            <mxPoint x="322" y="240" as="targetPoint" />
          </mxGeometry>
        </mxCell>
        <mxCell id="ulcF0Oi9tIBlTC5bzUrJ-21" value="" style="endArrow=classic;html=1;exitX=1;exitY=0.5;exitDx=0;exitDy=0;" parent="WIyWlLk6GJQsqaUBKTNV-1" edge="1">
          <mxGeometry width="50" height="50" relative="1" as="geometry">
            <mxPoint x="199" y="234" as="sourcePoint" />
            <mxPoint x="198" y="303" as="targetPoint" />
          </mxGeometry>
        </mxCell>
        <mxCell id="ulcF0Oi9tIBlTC5bzUrJ-22" value="" style="endArrow=classic;html=1;entryX=0.5;entryY=0;entryDx=0;entryDy=0;exitX=1;exitY=0.5;exitDx=0;exitDy=0;" parent="WIyWlLk6GJQsqaUBKTNV-1" source="ulcF0Oi9tIBlTC5bzUrJ-58" target="ulcF0Oi9tIBlTC5bzUrJ-62" edge="1">
          <mxGeometry width="50" height="50" relative="1" as="geometry">
            <mxPoint x="210" y="716.5" as="sourcePoint" />
            <mxPoint x="240" y="691.5" as="targetPoint" />
          </mxGeometry>
        </mxCell>
        <mxCell id="ulcF0Oi9tIBlTC5bzUrJ-23" value="" style="endArrow=classic;html=1;exitX=0.5;exitY=1;exitDx=0;exitDy=0;entryX=0.5;entryY=0;entryDx=0;entryDy=0;" parent="WIyWlLk6GJQsqaUBKTNV-1" source="ulcF0Oi9tIBlTC5bzUrJ-27" target="ulcF0Oi9tIBlTC5bzUrJ-66" edge="1">
          <mxGeometry width="50" height="50" relative="1" as="geometry">
            <mxPoint x="761" y="260" as="sourcePoint" />
            <mxPoint x="761" y="480" as="targetPoint" />
          </mxGeometry>
        </mxCell>
        <mxCell id="ulcF0Oi9tIBlTC5bzUrJ-24" value="a / an / any / how many" style="rounded=0;whiteSpace=wrap;html=1;" parent="WIyWlLk6GJQsqaUBKTNV-1" vertex="1">
          <mxGeometry x="282" y="241" width="80" height="43" as="geometry" />
        </mxCell>
        <mxCell id="ulcF0Oi9tIBlTC5bzUrJ-25" value="&lt;div&gt;Plural&lt;br&gt;&lt;/div&gt;&lt;div&gt;(眾數)&lt;/div&gt;" style="rounded=0;whiteSpace=wrap;html=1;" parent="WIyWlLk6GJQsqaUBKTNV-1" vertex="1">
          <mxGeometry x="260" y="324" width="80" height="40" as="geometry" />
        </mxCell>
        <mxCell id="ulcF0Oi9tIBlTC5bzUrJ-26" value="Questions (問句)？" style="rhombus;whiteSpace=wrap;html=1;" parent="WIyWlLk6GJQsqaUBKTNV-1" vertex="1">
          <mxGeometry x="80" y="180" width="240" height="60" as="geometry" />
        </mxCell>
        <mxCell id="ulcF0Oi9tIBlTC5bzUrJ-76" value="" style="edgeStyle=orthogonalEdgeStyle;rounded=0;orthogonalLoop=1;jettySize=auto;html=1;entryX=0.5;entryY=0;entryDx=0;entryDy=0;" parent="WIyWlLk6GJQsqaUBKTNV-1" target="ulcF0Oi9tIBlTC5bzUrJ-58" edge="1">
          <mxGeometry relative="1" as="geometry">
            <mxPoint x="521" y="210" as="sourcePoint" />
          </mxGeometry>
        </mxCell>
        <mxCell id="ulcF0Oi9tIBlTC5bzUrJ-27" value="Questions (問句)？" style="rhombus;whiteSpace=wrap;html=1;" parent="WIyWlLk6GJQsqaUBKTNV-1" vertex="1">
          <mxGeometry x="520" y="180" width="240" height="60" as="geometry" />
        </mxCell>
        <mxCell id="ulcF0Oi9tIBlTC5bzUrJ-29" value="是" style="text;html=1;strokeColor=none;fillColor=none;align=center;verticalAlign=middle;whiteSpace=wrap;rounded=0;" parent="WIyWlLk6GJQsqaUBKTNV-1" vertex="1">
          <mxGeometry x="322" y="210" width="40" height="20" as="geometry" />
        </mxCell>
        <mxCell id="ulcF0Oi9tIBlTC5bzUrJ-31" value="是" style="text;html=1;strokeColor=none;fillColor=none;align=center;verticalAlign=middle;whiteSpace=wrap;rounded=0;" parent="WIyWlLk6GJQsqaUBKTNV-1" vertex="1">
          <mxGeometry x="402" y="292" width="40" height="20" as="geometry" />
        </mxCell>
        <mxCell id="ulcF0Oi9tIBlTC5bzUrJ-34" value="否" style="text;html=1;strokeColor=none;fillColor=none;align=center;verticalAlign=middle;whiteSpace=wrap;rounded=0;" parent="WIyWlLk6GJQsqaUBKTNV-1" vertex="1">
          <mxGeometry x="159" y="264" width="40" height="20" as="geometry" />
        </mxCell>
        <mxCell id="ulcF0Oi9tIBlTC5bzUrJ-35" value="否" style="text;html=1;strokeColor=none;fillColor=none;align=center;verticalAlign=middle;whiteSpace=wrap;rounded=0;" parent="WIyWlLk6GJQsqaUBKTNV-1" vertex="1">
          <mxGeometry x="640" y="252.5" width="40" height="20" as="geometry" />
        </mxCell>
        <mxCell id="ulcF0Oi9tIBlTC5bzUrJ-36" value="&lt;div&gt;Singular &lt;br&gt;&lt;/div&gt;&lt;div&gt;(單數)&lt;/div&gt;" style="rounded=0;whiteSpace=wrap;html=1;" parent="WIyWlLk6GJQsqaUBKTNV-1" vertex="1">
          <mxGeometry x="59" y="324" width="80" height="40" as="geometry" />
        </mxCell>
        <mxCell id="ulcF0Oi9tIBlTC5bzUrJ-40" value="" style="endArrow=classic;html=1;" parent="WIyWlLk6GJQsqaUBKTNV-1" edge="1">
          <mxGeometry width="50" height="50" relative="1" as="geometry">
            <mxPoint x="98" y="303" as="sourcePoint" />
            <mxPoint x="98" y="323" as="targetPoint" />
          </mxGeometry>
        </mxCell>
        <mxCell id="ulcF0Oi9tIBlTC5bzUrJ-41" value="" style="endArrow=classic;html=1;" parent="WIyWlLk6GJQsqaUBKTNV-1" edge="1">
          <mxGeometry width="50" height="50" relative="1" as="geometry">
            <mxPoint x="298" y="303" as="sourcePoint" />
            <mxPoint x="298" y="323" as="targetPoint" />
          </mxGeometry>
        </mxCell>
        <mxCell id="ulcF0Oi9tIBlTC5bzUrJ-42" value="" style="endArrow=none;html=1;entryX=0.5;entryY=1;entryDx=0;entryDy=0;exitX=0.5;exitY=0;exitDx=0;exitDy=0;" parent="WIyWlLk6GJQsqaUBKTNV-1" source="ulcF0Oi9tIBlTC5bzUrJ-43" target="ulcF0Oi9tIBlTC5bzUrJ-36" edge="1">
          <mxGeometry width="50" height="50" relative="1" as="geometry">
            <mxPoint x="54" y="384" as="sourcePoint" />
            <mxPoint x="-8" y="388" as="targetPoint" />
          </mxGeometry>
        </mxCell>
        <mxCell id="ulcF0Oi9tIBlTC5bzUrJ-43" value="有沒有？" style="rhombus;whiteSpace=wrap;html=1;" parent="WIyWlLk6GJQsqaUBKTNV-1" vertex="1">
          <mxGeometry x="59" y="382" width="80" height="60" as="geometry" />
        </mxCell>
        <mxCell id="ulcF0Oi9tIBlTC5bzUrJ-44" value="" style="endArrow=classic;html=1;exitX=0;exitY=0.5;exitDx=0;exitDy=0;entryX=0.5;entryY=0;entryDx=0;entryDy=0;" parent="WIyWlLk6GJQsqaUBKTNV-1" source="ulcF0Oi9tIBlTC5bzUrJ-43" target="ulcF0Oi9tIBlTC5bzUrJ-45" edge="1">
          <mxGeometry width="50" height="50" relative="1" as="geometry">
            <mxPoint x="-68" y="397" as="sourcePoint" />
            <mxPoint x="-68" y="466" as="targetPoint" />
          </mxGeometry>
        </mxCell>
        <mxCell id="ulcF0Oi9tIBlTC5bzUrJ-45" value="a / an / lots of / a lot of / many" style="rounded=0;whiteSpace=wrap;html=1;" parent="WIyWlLk6GJQsqaUBKTNV-1" vertex="1">
          <mxGeometry x="18" y="465" width="81" height="79" as="geometry" />
        </mxCell>
        <mxCell id="ulcF0Oi9tIBlTC5bzUrJ-46" value="有" style="text;html=1;strokeColor=none;fillColor=none;align=center;verticalAlign=middle;whiteSpace=wrap;rounded=0;" parent="WIyWlLk6GJQsqaUBKTNV-1" vertex="1">
          <mxGeometry x="19" y="432" width="40" height="20" as="geometry" />
        </mxCell>
        <mxCell id="ulcF0Oi9tIBlTC5bzUrJ-47" value="" style="endArrow=classic;html=1;exitX=1;exitY=0.5;exitDx=0;exitDy=0;entryX=0.5;entryY=0;entryDx=0;entryDy=0;" parent="WIyWlLk6GJQsqaUBKTNV-1" source="ulcF0Oi9tIBlTC5bzUrJ-43" target="ulcF0Oi9tIBlTC5bzUrJ-48" edge="1">
          <mxGeometry width="50" height="50" relative="1" as="geometry">
            <mxPoint x="192" y="412" as="sourcePoint" />
            <mxPoint x="131" y="466" as="targetPoint" />
          </mxGeometry>
        </mxCell>
        <mxCell id="ulcF0Oi9tIBlTC5bzUrJ-48" value="a / an / not many" style="rounded=0;whiteSpace=wrap;html=1;" parent="WIyWlLk6GJQsqaUBKTNV-1" vertex="1">
          <mxGeometry x="111" y="465" width="58" height="65" as="geometry" />
        </mxCell>
        <mxCell id="ulcF0Oi9tIBlTC5bzUrJ-49" value="&lt;div&gt;沒有&lt;/div&gt;" style="text;html=1;strokeColor=none;fillColor=none;align=center;verticalAlign=middle;whiteSpace=wrap;rounded=0;" parent="WIyWlLk6GJQsqaUBKTNV-1" vertex="1">
          <mxGeometry x="139" y="432" width="40" height="20" as="geometry" />
        </mxCell>
        <mxCell id="ulcF0Oi9tIBlTC5bzUrJ-50" value="" style="endArrow=none;html=1;" parent="WIyWlLk6GJQsqaUBKTNV-1" edge="1">
          <mxGeometry width="50" height="50" relative="1" as="geometry">
            <mxPoint x="296" y="384" as="sourcePoint" />
            <mxPoint x="296" y="364" as="targetPoint" />
          </mxGeometry>
        </mxCell>
        <mxCell id="ulcF0Oi9tIBlTC5bzUrJ-51" value="有沒有？" style="rhombus;whiteSpace=wrap;html=1;" parent="WIyWlLk6GJQsqaUBKTNV-1" vertex="1">
          <mxGeometry x="251" y="382" width="90" height="60" as="geometry" />
        </mxCell>
        <mxCell id="ulcF0Oi9tIBlTC5bzUrJ-52" value="" style="endArrow=classic;html=1;exitX=0;exitY=0.5;exitDx=0;exitDy=0;entryX=0.5;entryY=0;entryDx=0;entryDy=0;" parent="WIyWlLk6GJQsqaUBKTNV-1" source="ulcF0Oi9tIBlTC5bzUrJ-51" target="ulcF0Oi9tIBlTC5bzUrJ-53" edge="1">
          <mxGeometry width="50" height="50" relative="1" as="geometry">
            <mxPoint x="155" y="397" as="sourcePoint" />
            <mxPoint x="155" y="466" as="targetPoint" />
          </mxGeometry>
        </mxCell>
        <mxCell id="ulcF0Oi9tIBlTC5bzUrJ-53" value="some / a lot of / lots of / a few / few" style="rounded=0;whiteSpace=wrap;html=1;" parent="WIyWlLk6GJQsqaUBKTNV-1" vertex="1">
          <mxGeometry x="210" y="465" width="82" height="79" as="geometry" />
        </mxCell>
        <mxCell id="ulcF0Oi9tIBlTC5bzUrJ-54" value="有" style="text;html=1;strokeColor=none;fillColor=none;align=center;verticalAlign=middle;whiteSpace=wrap;rounded=0;" parent="WIyWlLk6GJQsqaUBKTNV-1" vertex="1">
          <mxGeometry x="211" y="432" width="40" height="20" as="geometry" />
        </mxCell>
        <mxCell id="ulcF0Oi9tIBlTC5bzUrJ-55" value="" style="endArrow=classic;html=1;exitX=1;exitY=0.5;exitDx=0;exitDy=0;entryX=0.5;entryY=0;entryDx=0;entryDy=0;" parent="WIyWlLk6GJQsqaUBKTNV-1" source="ulcF0Oi9tIBlTC5bzUrJ-51" target="ulcF0Oi9tIBlTC5bzUrJ-56" edge="1">
          <mxGeometry width="50" height="50" relative="1" as="geometry">
            <mxPoint x="415" y="412" as="sourcePoint" />
            <mxPoint x="354" y="466" as="targetPoint" />
          </mxGeometry>
        </mxCell>
        <mxCell id="ulcF0Oi9tIBlTC5bzUrJ-56" value="any / not much" style="rounded=0;whiteSpace=wrap;html=1;" parent="WIyWlLk6GJQsqaUBKTNV-1" vertex="1">
          <mxGeometry x="314" y="470" width="55" height="53" as="geometry" />
        </mxCell>
        <mxCell id="ulcF0Oi9tIBlTC5bzUrJ-57" value="&lt;div&gt;沒有&lt;/div&gt;" style="text;html=1;strokeColor=none;fillColor=none;align=center;verticalAlign=middle;whiteSpace=wrap;rounded=0;" parent="WIyWlLk6GJQsqaUBKTNV-1" vertex="1">
          <mxGeometry x="349" y="432" width="40" height="20" as="geometry" />
        </mxCell>
        <mxCell id="ulcF0Oi9tIBlTC5bzUrJ-77" value="" style="edgeStyle=orthogonalEdgeStyle;rounded=0;orthogonalLoop=1;jettySize=auto;html=1;entryX=0.5;entryY=0;entryDx=0;entryDy=0;exitX=0;exitY=0.5;exitDx=0;exitDy=0;" parent="WIyWlLk6GJQsqaUBKTNV-1" source="ulcF0Oi9tIBlTC5bzUrJ-58" target="ulcF0Oi9tIBlTC5bzUrJ-65" edge="1">
          <mxGeometry relative="1" as="geometry" />
        </mxCell>
        <mxCell id="ulcF0Oi9tIBlTC5bzUrJ-58" value="提供或請求？" style="rhombus;whiteSpace=wrap;html=1;" parent="WIyWlLk6GJQsqaUBKTNV-1" vertex="1">
          <mxGeometry x="471" y="250" width="100" height="60" as="geometry" />
        </mxCell>
        <mxCell id="ulcF0Oi9tIBlTC5bzUrJ-60" value="是" style="text;html=1;strokeColor=none;fillColor=none;align=center;verticalAlign=middle;whiteSpace=wrap;rounded=0;" parent="WIyWlLk6GJQsqaUBKTNV-1" vertex="1">
          <mxGeometry x="480" y="220" width="40" height="20" as="geometry" />
        </mxCell>
        <mxCell id="ulcF0Oi9tIBlTC5bzUrJ-62" value="any / how much" style="rounded=0;whiteSpace=wrap;html=1;" parent="WIyWlLk6GJQsqaUBKTNV-1" vertex="1">
          <mxGeometry x="520" y="334" width="100" height="30" as="geometry" />
        </mxCell>
        <mxCell id="ulcF0Oi9tIBlTC5bzUrJ-64" value="否" style="text;html=1;strokeColor=none;fillColor=none;align=center;verticalAlign=middle;whiteSpace=wrap;rounded=0;" parent="WIyWlLk6GJQsqaUBKTNV-1" vertex="1">
          <mxGeometry x="571" y="292" width="40" height="20" as="geometry" />
        </mxCell>
        <mxCell id="ulcF0Oi9tIBlTC5bzUrJ-65" value="some" style="rounded=0;whiteSpace=wrap;html=1;" parent="WIyWlLk6GJQsqaUBKTNV-1" vertex="1">
          <mxGeometry x="420" y="340" width="60" height="30" as="geometry" />
        </mxCell>
        <mxCell id="ulcF0Oi9tIBlTC5bzUrJ-66" value="有沒有？" style="rhombus;whiteSpace=wrap;html=1;" parent="WIyWlLk6GJQsqaUBKTNV-1" vertex="1">
          <mxGeometry x="560" y="405" width="160" height="60" as="geometry" />
        </mxCell>
        <mxCell id="ulcF0Oi9tIBlTC5bzUrJ-67" value="" style="endArrow=classic;html=1;exitX=0;exitY=0.5;exitDx=0;exitDy=0;entryX=0.5;entryY=0;entryDx=0;entryDy=0;" parent="WIyWlLk6GJQsqaUBKTNV-1" source="ulcF0Oi9tIBlTC5bzUrJ-66" target="ulcF0Oi9tIBlTC5bzUrJ-68" edge="1">
          <mxGeometry width="50" height="50" relative="1" as="geometry">
            <mxPoint x="537" y="516" as="sourcePoint" />
            <mxPoint x="537" y="585" as="targetPoint" />
          </mxGeometry>
        </mxCell>
        <mxCell id="ulcF0Oi9tIBlTC5bzUrJ-68" value="some / a bit / a little / very little / little" style="rounded=0;whiteSpace=wrap;html=1;" parent="WIyWlLk6GJQsqaUBKTNV-1" vertex="1">
          <mxGeometry x="520" y="480" width="81" height="79" as="geometry" />
        </mxCell>
        <mxCell id="ulcF0Oi9tIBlTC5bzUrJ-69" value="有" style="text;html=1;strokeColor=none;fillColor=none;align=center;verticalAlign=middle;whiteSpace=wrap;rounded=0;" parent="WIyWlLk6GJQsqaUBKTNV-1" vertex="1">
          <mxGeometry x="520" y="450" width="40" height="20" as="geometry" />
        </mxCell>
        <mxCell id="ulcF0Oi9tIBlTC5bzUrJ-70" value="" style="endArrow=classic;html=1;exitX=1;exitY=0.5;exitDx=0;exitDy=0;entryX=0.5;entryY=0;entryDx=0;entryDy=0;" parent="WIyWlLk6GJQsqaUBKTNV-1" source="ulcF0Oi9tIBlTC5bzUrJ-66" target="ulcF0Oi9tIBlTC5bzUrJ-71" edge="1">
          <mxGeometry width="50" height="50" relative="1" as="geometry">
            <mxPoint x="797" y="531" as="sourcePoint" />
            <mxPoint x="736" y="585" as="targetPoint" />
          </mxGeometry>
        </mxCell>
        <mxCell id="ulcF0Oi9tIBlTC5bzUrJ-71" value="any" style="rounded=0;whiteSpace=wrap;html=1;" parent="WIyWlLk6GJQsqaUBKTNV-1" vertex="1">
          <mxGeometry x="680" y="480" width="80" height="43" as="geometry" />
        </mxCell>
        <mxCell id="ulcF0Oi9tIBlTC5bzUrJ-72" value="&lt;div&gt;沒有&lt;/div&gt;" style="text;html=1;strokeColor=none;fillColor=none;align=center;verticalAlign=middle;whiteSpace=wrap;rounded=0;" parent="WIyWlLk6GJQsqaUBKTNV-1" vertex="1">
          <mxGeometry x="740" y="445" width="40" height="20" as="geometry" />
        </mxCell>
      </root>
    </mxGraphModel>
  </diagram>
</mxfile>
